<?xml version="1.0" encoding="UTF-8" standalone="no"?>
<!DOCTYPE svg PUBLIC "-//W3C//DTD SVG 1.1//EN" "http://www.w3.org/Graphics/SVG/1.1/DTD/svg11.dtd">
<svg width="100%" height="100%" viewBox="0 0 947 207" version="1.1" xmlns="http://www.w3.org/2000/svg" xmlns:xlink="http://www.w3.org/1999/xlink" xml:space="preserve" xmlns:serif="http://www.serif.com/" style="fill-rule:evenodd;clip-rule:evenodd;stroke-linejoin:round;stroke-miterlimit:2;">
    <g id="Artboard1" transform="matrix(1.85742,0,0,0.40981,7.43444,0.911701)">
        <rect x="-4.003" y="-2.225" width="509.65" height="504.857" style="fill:none;"/>
        <clipPath id="_clip1">
            <rect x="-4.003" y="-2.225" width="509.65" height="504.857"/>
        </clipPath>
        <g clip-path="url(#_clip1)">
            <g transform="matrix(1.12486,0,0,2.44015,-31.3189,-353.966)">
                <g id="Layer1">
                    <rect x="-4.003" y="-2.225" width="509.65" height="504.857" style="fill:rgb(23,27,56);"/>
                </g>
            </g>
            <g transform="matrix(0.634904,0,0,2.87763,14.3669,62.4767)">
                <path d="M67.648,69.797C62.402,75.047 62.402,83.555 67.648,88.805C72.898,94.051 81.406,94.051 86.652,88.805C91.902,83.555 91.902,75.047 86.652,69.797C81.406,64.551 72.898,64.551 67.648,69.797ZM81.855,84.016C80.608,85.265 78.914,85.967 77.15,85.967C75.386,85.967 73.692,85.265 72.445,84.016C71.198,82.769 70.496,81.076 70.496,79.313C70.496,77.549 71.198,75.856 72.445,74.609C73.692,73.36 75.386,72.658 77.15,72.658C78.914,72.658 80.608,73.36 81.855,74.609C84.453,77.195 84.453,81.418 81.855,84.016ZM86.43,3.672L78.195,11.906C76.592,13.521 76.592,16.166 78.195,17.781L110.344,49.93C111.959,51.533 114.604,51.533 116.219,49.93L124.453,41.695C126.063,40.085 126.063,37.434 124.453,35.825L92.29,3.671C90.679,2.072 88.041,2.072 86.43,3.671L86.43,3.672ZM28.738,108.895C30.19,107.437 30.19,105.043 28.738,103.585L24.555,99.398C23.095,97.947 20.702,97.947 19.242,99.398L10.598,108.047L10.582,108.059L8.211,105.684C6.898,104.371 4.761,104.371 3.461,105.684C2.148,106.996 2.148,109.133 3.461,110.434L17.707,124.676C18.336,125.306 19.19,125.66 20.08,125.66C20.97,125.66 21.824,125.306 22.453,124.676C23.753,123.363 23.766,121.226 22.453,119.93L20.078,117.555L20.094,117.543L28.738,108.895Z" style="fill:rgb(245,168,0);fill-rule:nonzero;"/>
            </g>
            <g transform="matrix(0.634904,0,0,2.87763,14.3669,62.4767)">
                <path d="M72.297,27.313L54.004,45.605C52.379,47.23 52.379,49.906 54.004,51.531L65.3,62.824C73.284,57.078 84.48,57.789 91.663,64.977L100.811,55.828C102.433,54.203 102.433,51.531 100.811,49.906L78.22,27.313C77.435,26.527 76.369,26.085 75.259,26.085C74.149,26.085 73.083,26.527 72.298,27.313L72.297,27.313ZM60.55,67.585L53.878,60.913C52.315,59.351 49.753,59.351 48.194,60.913L24.664,84.453C23.112,86.016 23.112,88.577 24.664,90.14L37.995,103.472C39.559,105.025 42.119,105.025 43.683,103.472L58.815,88.315C55.616,81.706 56.19,73.722 60.55,67.585Z" style="fill:rgb(66,92,199);fill-rule:nonzero;"/>
            </g>
            <g transform="matrix(1.00854,0,0,4.5711,38.1847,-972.745)">
                <text x="63.099px" y="258.991px" style="font-family:'SegoeUI', 'Segoe UI';font-size:40px;fill:rgb(34,139,230);">Bro<tspan x="123.372px " y="258.991px ">w</tspan>ser</text>
                <text x="215.11px" y="258.991px" style="font-family:'SegoeUI', 'Segoe UI';font-size:40px;fill:rgb(34,139,230);">Exte<tspan x="288.177px " y="258.991px ">n</tspan>sion</text>
                <text x="63.099px" y="298.991px" style="font-family:'SegoeUI', 'Segoe UI';font-size:40px;fill:white;">for</text>
                <text x="123.919px" y="298.991px" style="font-family:'SegoeUI', 'Segoe UI';font-size:40px;fill:rgb(250,176,5);">Open</text>
                <g transform="matrix(40,0,0,40,439.368,298.991)">
                </g>
                <text x="221.146px" y="298.991px" style="font-family:'SegoeUI-Bold', 'Segoe UI';font-weight:700;font-size:40px;fill:rgb(34,139,230);">T<tspan x="240.989px 262.63px " y="298.991px 298.991px ">el</tspan>emetr<tspan x="387.005px 408.528px " y="298.991px 298.991px ">y™</tspan></text>
            </g>
        </g>
    </g>
</svg>
