<?xml version="1.0" encoding="UTF-8" standalone="no"?>
<!DOCTYPE svg PUBLIC "-//W3C//DTD SVG 1.1//EN" "http://www.w3.org/Graphics/SVG/1.1/DTD/svg11.dtd">
<svg width="100%" height="100%" viewBox="0 0 947 207" version="1.1" xmlns="http://www.w3.org/2000/svg" xmlns:xlink="http://www.w3.org/1999/xlink" xml:space="preserve" xmlns:serif="http://www.serif.com/" style="fill-rule:evenodd;clip-rule:evenodd;stroke-linejoin:round;stroke-miterlimit:2;">
    <g id="Artboard1" transform="matrix(1.85742,0,0,0.40981,7.43444,0.911701)">
        <g>
            <rect x="-4.003" y="-2.225" width="509.65" height="504.857" style="fill:none;"/>
            <g>
                <clipPath id="_clip1">
                    <rect x="-4.003" y="-2.225" width="509.65" height="504.857"/>
                </clipPath>
                <g clip-path="url(#_clip1)">
                    <g>
                        <g transform="matrix(1.12486,0,0,2.44015,-31.3189,-353.966)">
                            <g>
                                <g id="Layer1">
                                    <g>
                                        <rect x="-4.003" y="-2.225" width="509.65" height="504.857" style="fill:rgb(23,27,56);"/>
                                    </g>
                                </g>
                            </g>
                        </g>
                        <g transform="matrix(0.634904,0,0,2.87763,14.3669,62.4767)">
                            <path d="M67.648,69.797C62.402,75.047 62.402,83.555 67.648,88.805C72.898,94.051 81.406,94.051 86.652,88.805C91.902,83.555 91.902,75.047 86.652,69.797C81.406,64.551 72.898,64.551 67.648,69.797ZM81.855,84.016C80.608,85.265 78.914,85.967 77.15,85.967C75.386,85.967 73.692,85.265 72.445,84.016C71.198,82.769 70.496,81.076 70.496,79.313C70.496,77.549 71.198,75.856 72.445,74.609C73.692,73.36 75.386,72.658 77.15,72.658C78.914,72.658 80.608,73.36 81.855,74.609C84.453,77.195 84.453,81.418 81.855,84.016ZM86.43,3.672L78.195,11.906C76.592,13.521 76.592,16.166 78.195,17.781L110.344,49.93C111.959,51.533 114.604,51.533 116.219,49.93L124.453,41.695C126.063,40.085 126.063,37.434 124.453,35.825L92.29,3.671C90.679,2.072 88.041,2.072 86.43,3.671L86.43,3.672ZM28.738,108.895C30.19,107.437 30.19,105.043 28.738,103.585L24.555,99.398C23.095,97.947 20.702,97.947 19.242,99.398L10.598,108.047L10.582,108.059L8.211,105.684C6.898,104.371 4.761,104.371 3.461,105.684C2.148,106.996 2.148,109.133 3.461,110.434L17.707,124.676C18.336,125.306 19.19,125.66 20.08,125.66C20.97,125.66 21.824,125.306 22.453,124.676C23.753,123.363 23.766,121.226 22.453,119.93L20.078,117.555L20.094,117.543L28.738,108.895Z" style="fill:rgb(245,168,0);fill-rule:nonzero;"/>
                        </g>
                        <g transform="matrix(0.634904,0,0,2.87763,14.3669,62.4767)">
                            <g>
                                <path d="M72.297,27.313L54.004,45.605C52.379,47.23 52.379,49.906 54.004,51.531L65.3,62.824C73.284,57.078 84.48,57.789 91.663,64.977L100.811,55.828C102.433,54.203 102.433,51.531 100.811,49.906L78.22,27.313C77.435,26.527 76.369,26.085 75.259,26.085C74.149,26.085 73.083,26.527 72.298,27.313L72.297,27.313ZM60.55,67.585L53.878,60.913C52.315,59.351 49.753,59.351 48.194,60.913L24.664,84.453C23.112,86.016 23.112,88.577 24.664,90.14L37.995,103.472C39.559,105.025 42.119,105.025 43.683,103.472L58.815,88.315C55.616,81.706 56.19,73.722 60.55,67.585Z" style="fill:rgb(66,92,199);fill-rule:nonzero;"/>
                            </g>
                        </g>
                        <g transform="matrix(1.00854,0,0,4.5711,38.1847,-972.745)">
                            <g>
                                <g>
                                    <g transform="matrix(1,0,0,1,63.099,258.991)">
                                        <path d="M3.672,0L3.672,-28.008L11.641,-28.008C14.063,-28.008 15.983,-27.415 17.402,-26.23C18.822,-25.046 19.531,-23.503 19.531,-21.602C19.531,-20.013 19.102,-18.633 18.242,-17.461C17.383,-16.289 16.198,-15.456 14.688,-14.961L14.688,-14.883C16.576,-14.661 18.086,-13.945 19.219,-12.734C20.352,-11.536 20.918,-9.974 20.918,-8.047C20.918,-5.651 20.059,-3.711 18.34,-2.227C16.621,-0.742 14.453,0 11.836,0L3.672,0ZM6.953,-25.039L6.953,-15.996L10.313,-15.996C12.109,-15.996 13.522,-16.426 14.551,-17.285C15.579,-18.158 16.094,-19.382 16.094,-20.957C16.094,-23.678 14.303,-25.039 10.723,-25.039L6.953,-25.039ZM6.953,-13.047L6.953,-2.969L11.406,-2.969C13.333,-2.969 14.824,-3.424 15.879,-4.336C16.947,-5.247 17.48,-6.497 17.48,-8.086C17.48,-11.393 15.228,-13.047 10.723,-13.047L6.953,-13.047Z" style="fill:rgb(34,139,230);"/>
                                    </g>
                                    <g transform="matrix(1,0,0,1,63.099,258.991)">
                                        <path d="M36.602,-16.758C36.042,-17.188 35.234,-17.402 34.18,-17.402C32.813,-17.402 31.667,-16.758 30.742,-15.469C29.831,-14.18 29.375,-12.422 29.375,-10.195L29.375,0L26.172,0L26.172,-20L29.375,-20L29.375,-15.879L29.453,-15.879C29.909,-17.285 30.605,-18.379 31.543,-19.16C32.48,-19.954 33.529,-20.352 34.688,-20.352C35.521,-20.352 36.159,-20.26 36.602,-20.078L36.602,-16.758Z" style="fill:rgb(34,139,230);"/>
                                    </g>
                                    <g transform="matrix(1,0,0,1,63.099,258.991)">
                                        <path d="M48.438,0.469C45.482,0.469 43.118,-0.462 41.348,-2.324C39.59,-4.199 38.711,-6.68 38.711,-9.766C38.711,-13.125 39.629,-15.749 41.465,-17.637C43.301,-19.525 45.781,-20.469 48.906,-20.469C51.888,-20.469 54.212,-19.551 55.879,-17.715C57.559,-15.879 58.398,-13.333 58.398,-10.078C58.398,-6.888 57.493,-4.329 55.684,-2.402C53.887,-0.488 51.471,0.469 48.438,0.469ZM48.672,-17.773C46.615,-17.773 44.987,-17.07 43.789,-15.664C42.591,-14.271 41.992,-12.344 41.992,-9.883C41.992,-7.513 42.598,-5.645 43.809,-4.277C45.02,-2.91 46.641,-2.227 48.672,-2.227C50.742,-2.227 52.331,-2.897 53.438,-4.238C54.557,-5.579 55.117,-7.487 55.117,-9.961C55.117,-12.461 54.557,-14.388 53.438,-15.742C52.331,-17.096 50.742,-17.773 48.672,-17.773Z" style="fill:rgb(34,139,230);"/>
                                    </g>
                                    <g transform="matrix(1,0,0,1,123.372,258.991)">
                                        <path d="M28.438,-20L22.441,0L19.121,0L15,-14.316C14.844,-14.863 14.74,-15.482 14.688,-16.172L14.609,-16.172C14.57,-15.703 14.434,-15.098 14.199,-14.355L9.727,0L6.523,0L0.469,-20L3.828,-20L7.969,-4.961C8.099,-4.505 8.19,-3.906 8.242,-3.164L8.398,-3.164C8.438,-3.737 8.555,-4.349 8.75,-5L13.359,-20L16.289,-20L20.43,-4.922C20.56,-4.44 20.658,-3.841 20.723,-3.125L20.879,-3.125C20.905,-3.633 21.016,-4.232 21.211,-4.922L25.273,-20L28.438,-20Z" style="fill:rgb(34,139,230);"/>
                                    </g>
                                    <g transform="matrix(1,0,0,1,123.372,258.991)">
                                        <path d="M30.938,-0.723L30.938,-4.16C32.682,-2.871 34.603,-2.227 36.699,-2.227C39.512,-2.227 40.918,-3.164 40.918,-5.039C40.918,-5.573 40.794,-6.022 40.547,-6.387C40.313,-6.764 39.987,-7.096 39.57,-7.383C39.167,-7.669 38.685,-7.923 38.125,-8.145C37.578,-8.379 36.986,-8.62 36.348,-8.867C35.462,-9.219 34.681,-9.57 34.004,-9.922C33.34,-10.286 32.78,-10.69 32.324,-11.133C31.882,-11.589 31.543,-12.103 31.309,-12.676C31.087,-13.249 30.977,-13.919 30.977,-14.688C30.977,-15.625 31.191,-16.452 31.621,-17.168C32.051,-17.897 32.624,-18.503 33.34,-18.984C34.056,-19.479 34.87,-19.85 35.781,-20.098C36.706,-20.345 37.656,-20.469 38.633,-20.469C40.365,-20.469 41.914,-20.169 43.281,-19.57L43.281,-16.328C41.81,-17.292 40.117,-17.773 38.203,-17.773C37.604,-17.773 37.064,-17.702 36.582,-17.559C36.1,-17.428 35.684,-17.24 35.332,-16.992C34.993,-16.745 34.727,-16.445 34.531,-16.094C34.349,-15.755 34.258,-15.378 34.258,-14.961C34.258,-14.44 34.349,-14.004 34.531,-13.652C34.727,-13.301 35.007,-12.988 35.371,-12.715C35.736,-12.441 36.178,-12.194 36.699,-11.973C37.22,-11.751 37.813,-11.51 38.477,-11.25C39.362,-10.911 40.156,-10.56 40.859,-10.195C41.563,-9.844 42.161,-9.44 42.656,-8.984C43.151,-8.542 43.529,-8.027 43.789,-7.441C44.063,-6.855 44.199,-6.159 44.199,-5.352C44.199,-4.362 43.978,-3.503 43.535,-2.773C43.105,-2.044 42.526,-1.439 41.797,-0.957C41.068,-0.475 40.228,-0.117 39.277,0.117C38.327,0.352 37.331,0.469 36.289,0.469C34.232,0.469 32.448,0.072 30.938,-0.723Z" style="fill:rgb(34,139,230);"/>
                                    </g>
                                    <g transform="matrix(1,0,0,1,123.372,258.991)">
                                        <path d="M65.195,-9.199L51.074,-9.199C51.126,-6.973 51.725,-5.254 52.871,-4.043C54.017,-2.832 55.592,-2.227 57.598,-2.227C59.85,-2.227 61.921,-2.969 63.809,-4.453L63.809,-1.445C62.051,-0.169 59.727,0.469 56.836,0.469C54.01,0.469 51.79,-0.436 50.176,-2.246C48.561,-4.069 47.754,-6.628 47.754,-9.922C47.754,-13.034 48.633,-15.566 50.391,-17.52C52.161,-19.486 54.355,-20.469 56.973,-20.469C59.59,-20.469 61.615,-19.622 63.047,-17.93C64.479,-16.237 65.195,-13.887 65.195,-10.879L65.195,-9.199ZM61.914,-11.914C61.901,-13.763 61.452,-15.202 60.566,-16.23C59.694,-17.259 58.477,-17.773 56.914,-17.773C55.404,-17.773 54.121,-17.233 53.066,-16.152C52.012,-15.072 51.361,-13.659 51.113,-11.914L61.914,-11.914Z" style="fill:rgb(34,139,230);"/>
                                    </g>
                                    <g transform="matrix(1,0,0,1,123.372,258.991)">
                                        <path d="M80.469,-16.758C79.909,-17.188 79.102,-17.402 78.047,-17.402C76.68,-17.402 75.534,-16.758 74.609,-15.469C73.698,-14.18 73.242,-12.422 73.242,-10.195L73.242,0L70.039,0L70.039,-20L73.242,-20L73.242,-15.879L73.32,-15.879C73.776,-17.285 74.473,-18.379 75.41,-19.16C76.348,-19.954 77.396,-20.352 78.555,-20.352C79.388,-20.352 80.026,-20.26 80.469,-20.078L80.469,-16.758Z" style="fill:rgb(34,139,230);"/>
                                    </g>
                                </g>
                            </g>
                            <g>
                                <g>
                                    <g transform="matrix(1,0,0,1,215.11,258.991)">
                                        <path d="M18.516,0L3.672,0L3.672,-28.008L17.891,-28.008L17.891,-25.039L6.953,-25.039L6.953,-15.723L17.07,-15.723L17.07,-12.773L6.953,-12.773L6.953,-2.969L18.516,-2.969L18.516,0Z" style="fill:rgb(34,139,230);"/>
                                    </g>
                                    <g transform="matrix(1,0,0,1,215.11,258.991)">
                                        <path d="M38.086,-20L31.367,-9.883L37.969,0L34.238,0L30.313,-6.484C30.065,-6.888 29.772,-7.396 29.434,-8.008L29.355,-8.008C29.29,-7.891 28.984,-7.383 28.438,-6.484L24.434,0L20.742,0L27.559,-9.805L21.035,-20L24.766,-20L28.633,-13.164C28.919,-12.656 29.199,-12.135 29.473,-11.602L29.551,-11.602L34.551,-20L38.086,-20Z" style="fill:rgb(34,139,230);"/>
                                    </g>
                                    <g transform="matrix(1,0,0,1,215.11,258.991)">
                                        <path d="M51.113,-0.195C50.358,0.221 49.362,0.43 48.125,0.43C44.622,0.43 42.871,-1.523 42.871,-5.43L42.871,-17.266L39.434,-17.266L39.434,-20L42.871,-20L42.871,-24.883L46.074,-25.918L46.074,-20L51.113,-20L51.113,-17.266L46.074,-17.266L46.074,-5.996C46.074,-4.655 46.302,-3.698 46.758,-3.125C47.214,-2.552 47.969,-2.266 49.023,-2.266C49.831,-2.266 50.527,-2.487 51.113,-2.93L51.113,-0.195Z" style="fill:rgb(34,139,230);"/>
                                    </g>
                                    <g transform="matrix(1,0,0,1,215.11,258.991)">
                                        <path d="M71.465,-9.199L57.344,-9.199C57.396,-6.973 57.995,-5.254 59.141,-4.043C60.286,-2.832 61.862,-2.227 63.867,-2.227C66.12,-2.227 68.19,-2.969 70.078,-4.453L70.078,-1.445C68.32,-0.169 65.996,0.469 63.105,0.469C60.28,0.469 58.06,-0.436 56.445,-2.246C54.831,-4.069 54.023,-6.628 54.023,-9.922C54.023,-13.034 54.902,-15.566 56.66,-17.52C58.431,-19.486 60.625,-20.469 63.242,-20.469C65.859,-20.469 67.884,-19.622 69.316,-17.93C70.749,-16.237 71.465,-13.887 71.465,-10.879L71.465,-9.199ZM68.184,-11.914C68.171,-13.763 67.721,-15.202 66.836,-16.23C65.964,-17.259 64.746,-17.773 63.184,-17.773C61.673,-17.773 60.391,-17.233 59.336,-16.152C58.281,-15.072 57.63,-13.659 57.383,-11.914L68.184,-11.914Z" style="fill:rgb(34,139,230);"/>
                                    </g>
                                    <g transform="matrix(1,0,0,1,288.177,258.991)">
                                        <path d="M19.844,0L16.641,0L16.641,-11.406C16.641,-15.651 15.091,-17.773 11.992,-17.773C10.391,-17.773 9.063,-17.168 8.008,-15.957C6.966,-14.759 6.445,-13.242 6.445,-11.406L6.445,0L3.242,0L3.242,-20L6.445,-20L6.445,-16.68L6.523,-16.68C8.034,-19.206 10.221,-20.469 13.086,-20.469C15.273,-20.469 16.947,-19.759 18.105,-18.34C19.264,-16.934 19.844,-14.896 19.844,-12.227L19.844,0Z" style="fill:rgb(34,139,230);"/>
                                    </g>
                                    <g transform="matrix(1,0,0,1,288.177,258.991)">
                                        <path d="M24.668,-0.723L24.668,-4.16C26.413,-2.871 28.333,-2.227 30.43,-2.227C33.242,-2.227 34.648,-3.164 34.648,-5.039C34.648,-5.573 34.525,-6.022 34.277,-6.387C34.043,-6.764 33.717,-7.096 33.301,-7.383C32.897,-7.669 32.415,-7.923 31.855,-8.145C31.309,-8.379 30.716,-8.62 30.078,-8.867C29.193,-9.219 28.411,-9.57 27.734,-9.922C27.07,-10.286 26.51,-10.69 26.055,-11.133C25.612,-11.589 25.273,-12.103 25.039,-12.676C24.818,-13.249 24.707,-13.919 24.707,-14.688C24.707,-15.625 24.922,-16.452 25.352,-17.168C25.781,-17.897 26.354,-18.503 27.07,-18.984C27.786,-19.479 28.6,-19.85 29.512,-20.098C30.436,-20.345 31.387,-20.469 32.363,-20.469C34.095,-20.469 35.645,-20.169 37.012,-19.57L37.012,-16.328C35.54,-17.292 33.848,-17.773 31.934,-17.773C31.335,-17.773 30.794,-17.702 30.313,-17.559C29.831,-17.428 29.414,-17.24 29.063,-16.992C28.724,-16.745 28.457,-16.445 28.262,-16.094C28.079,-15.755 27.988,-15.378 27.988,-14.961C27.988,-14.44 28.079,-14.004 28.262,-13.652C28.457,-13.301 28.737,-12.988 29.102,-12.715C29.466,-12.441 29.909,-12.194 30.43,-11.973C30.951,-11.751 31.543,-11.51 32.207,-11.25C33.092,-10.911 33.887,-10.56 34.59,-10.195C35.293,-9.844 35.892,-9.44 36.387,-8.984C36.882,-8.542 37.259,-8.027 37.52,-7.441C37.793,-6.855 37.93,-6.159 37.93,-5.352C37.93,-4.362 37.708,-3.503 37.266,-2.773C36.836,-2.044 36.257,-1.439 35.527,-0.957C34.798,-0.475 33.958,-0.117 33.008,0.117C32.057,0.352 31.061,0.469 30.02,0.469C27.962,0.469 26.178,0.072 24.668,-0.723Z" style="fill:rgb(34,139,230);"/>
                                    </g>
                                    <g transform="matrix(1,0,0,1,288.177,258.991)">
                                        <path d="M44.492,-25.078C43.919,-25.078 43.431,-25.273 43.027,-25.664C42.624,-26.055 42.422,-26.549 42.422,-27.148C42.422,-27.747 42.624,-28.242 43.027,-28.633C43.431,-29.036 43.919,-29.238 44.492,-29.238C45.078,-29.238 45.573,-29.036 45.977,-28.633C46.393,-28.242 46.602,-27.747 46.602,-27.148C46.602,-26.576 46.393,-26.087 45.977,-25.684C45.573,-25.28 45.078,-25.078 44.492,-25.078ZM46.055,0L42.852,0L42.852,-20L46.055,-20L46.055,0Z" style="fill:rgb(34,139,230);"/>
                                    </g>
                                    <g transform="matrix(1,0,0,1,288.177,258.991)">
                                        <path d="M60.898,0.469C57.943,0.469 55.579,-0.462 53.809,-2.324C52.051,-4.199 51.172,-6.68 51.172,-9.766C51.172,-13.125 52.09,-15.749 53.926,-17.637C55.762,-19.525 58.242,-20.469 61.367,-20.469C64.349,-20.469 66.673,-19.551 68.34,-17.715C70.02,-15.879 70.859,-13.333 70.859,-10.078C70.859,-6.888 69.954,-4.329 68.145,-2.402C66.348,-0.488 63.932,0.469 60.898,0.469ZM61.133,-17.773C59.076,-17.773 57.448,-17.07 56.25,-15.664C55.052,-14.271 54.453,-12.344 54.453,-9.883C54.453,-7.513 55.059,-5.645 56.27,-4.277C57.48,-2.91 59.102,-2.227 61.133,-2.227C63.203,-2.227 64.792,-2.897 65.898,-4.238C67.018,-5.579 67.578,-7.487 67.578,-9.961C67.578,-12.461 67.018,-14.388 65.898,-15.742C64.792,-17.096 63.203,-17.773 61.133,-17.773Z" style="fill:rgb(34,139,230);"/>
                                    </g>
                                    <g transform="matrix(1,0,0,1,288.177,258.991)">
                                        <path d="M92.578,0L89.375,0L89.375,-11.406C89.375,-15.651 87.826,-17.773 84.727,-17.773C83.125,-17.773 81.797,-17.168 80.742,-15.957C79.701,-14.759 79.18,-13.242 79.18,-11.406L79.18,0L75.977,0L75.977,-20L79.18,-20L79.18,-16.68L79.258,-16.68C80.768,-19.206 82.956,-20.469 85.82,-20.469C88.008,-20.469 89.681,-19.759 90.84,-18.34C91.999,-16.934 92.578,-14.896 92.578,-12.227L92.578,0Z" style="fill:rgb(34,139,230);"/>
                                    </g>
                                </g>
                            </g>
                            <g transform="matrix(1,0,0,1,63.099,298.991)">
                                <path d="M13.125,-26.797C12.5,-27.148 11.79,-27.324 10.996,-27.324C8.757,-27.324 7.637,-25.911 7.637,-23.086L7.637,-20L12.324,-20L12.324,-17.266L7.637,-17.266L7.637,0L4.453,0L4.453,-17.266L1.035,-17.266L1.035,-20L4.453,-20L4.453,-23.242C4.453,-25.339 5.059,-26.992 6.27,-28.203C7.48,-29.427 8.991,-30.039 10.801,-30.039C11.777,-30.039 12.552,-29.922 13.125,-29.688L13.125,-26.797Z" style="fill:white;fill-rule:nonzero;"/>
                                <path d="M24.121,0.469C21.165,0.469 18.802,-0.462 17.031,-2.324C15.273,-4.199 14.395,-6.68 14.395,-9.766C14.395,-13.125 15.313,-15.749 17.148,-17.637C18.984,-19.525 21.465,-20.469 24.59,-20.469C27.572,-20.469 29.896,-19.551 31.563,-17.715C33.242,-15.879 34.082,-13.333 34.082,-10.078C34.082,-6.888 33.177,-4.329 31.367,-2.402C29.57,-0.488 27.155,0.469 24.121,0.469ZM24.355,-17.773C22.298,-17.773 20.671,-17.07 19.473,-15.664C18.275,-14.271 17.676,-12.344 17.676,-9.883C17.676,-7.513 18.281,-5.645 19.492,-4.277C20.703,-2.91 22.324,-2.227 24.355,-2.227C26.426,-2.227 28.014,-2.897 29.121,-4.238C30.241,-5.579 30.801,-7.487 30.801,-9.961C30.801,-12.461 30.241,-14.388 29.121,-15.742C28.014,-17.096 26.426,-17.773 24.355,-17.773Z" style="fill:white;fill-rule:nonzero;"/>
                                <path d="M49.629,-16.758C49.069,-17.188 48.262,-17.402 47.207,-17.402C45.84,-17.402 44.694,-16.758 43.77,-15.469C42.858,-14.18 42.402,-12.422 42.402,-10.195L42.402,0L39.199,0L39.199,-20L42.402,-20L42.402,-15.879L42.48,-15.879C42.936,-17.285 43.633,-18.379 44.57,-19.16C45.508,-19.954 46.556,-20.352 47.715,-20.352C48.548,-20.352 49.186,-20.26 49.629,-20.078L49.629,-16.758Z" style="fill:white;fill-rule:nonzero;"/>
                            </g>
                            <g transform="matrix(1,0,0,1,123.919,298.991)">
                                <g>
                                    <path d="M14.961,0.469C10.99,0.469 7.806,-0.84 5.41,-3.457C3.027,-6.074 1.836,-9.479 1.836,-13.672C1.836,-18.177 3.053,-21.771 5.488,-24.453C7.923,-27.135 11.237,-28.477 15.43,-28.477C19.297,-28.477 22.409,-27.174 24.766,-24.57C27.135,-21.966 28.32,-18.561 28.32,-14.355C28.32,-9.785 27.109,-6.172 24.688,-3.516C22.266,-0.859 19.023,0.469 14.961,0.469ZM15.195,-25.508C12.253,-25.508 9.863,-24.447 8.027,-22.324C6.191,-20.202 5.273,-17.415 5.273,-13.965C5.273,-10.514 6.165,-7.734 7.949,-5.625C9.746,-3.529 12.083,-2.48 14.961,-2.48C18.034,-2.48 20.456,-3.483 22.227,-5.488C23.997,-7.493 24.883,-10.299 24.883,-13.906C24.883,-17.604 24.023,-20.462 22.305,-22.48C20.586,-24.499 18.216,-25.508 15.195,-25.508Z" style="fill:rgb(250,176,5);fill-rule:nonzero;"/>
                                    <path d="M36.68,-2.891L36.602,-2.891L36.602,9.199L33.398,9.199L33.398,-20L36.602,-20L36.602,-16.484L36.68,-16.484C38.255,-19.141 40.56,-20.469 43.594,-20.469C46.172,-20.469 48.184,-19.57 49.629,-17.773C51.074,-15.99 51.797,-13.594 51.797,-10.586C51.797,-7.24 50.983,-4.557 49.355,-2.539C47.728,-0.534 45.501,0.469 42.676,0.469C40.085,0.469 38.086,-0.651 36.68,-2.891ZM36.602,-10.957L36.602,-8.164C36.602,-6.51 37.135,-5.104 38.203,-3.945C39.284,-2.799 40.651,-2.227 42.305,-2.227C44.245,-2.227 45.762,-2.969 46.855,-4.453C47.962,-5.938 48.516,-8.001 48.516,-10.645C48.516,-12.871 48.001,-14.616 46.973,-15.879C45.944,-17.142 44.551,-17.773 42.793,-17.773C40.931,-17.773 39.434,-17.122 38.301,-15.82C37.168,-14.531 36.602,-12.91 36.602,-10.957Z" style="fill:rgb(250,176,5);fill-rule:nonzero;"/>
                                    <path d="M72.988,-9.199L58.867,-9.199C58.919,-6.973 59.518,-5.254 60.664,-4.043C61.81,-2.832 63.385,-2.227 65.391,-2.227C67.643,-2.227 69.714,-2.969 71.602,-4.453L71.602,-1.445C69.844,-0.169 67.52,0.469 64.629,0.469C61.803,0.469 59.583,-0.436 57.969,-2.246C56.354,-4.069 55.547,-6.628 55.547,-9.922C55.547,-13.034 56.426,-15.566 58.184,-17.52C59.954,-19.486 62.148,-20.469 64.766,-20.469C67.383,-20.469 69.408,-19.622 70.84,-17.93C72.272,-16.237 72.988,-13.887 72.988,-10.879L72.988,-9.199ZM69.707,-11.914C69.694,-13.763 69.245,-15.202 68.359,-16.23C67.487,-17.259 66.27,-17.773 64.707,-17.773C63.197,-17.773 61.914,-17.233 60.859,-16.152C59.805,-15.072 59.154,-13.659 58.906,-11.914L69.707,-11.914Z" style="fill:rgb(250,176,5);fill-rule:nonzero;"/>
                                    <path d="M94.434,0L91.23,0L91.23,-11.406C91.23,-15.651 89.681,-17.773 86.582,-17.773C84.98,-17.773 83.652,-17.168 82.598,-15.957C81.556,-14.759 81.035,-13.242 81.035,-11.406L81.035,0L77.832,0L77.832,-20L81.035,-20L81.035,-16.68L81.113,-16.68C82.624,-19.206 84.811,-20.469 87.676,-20.469C89.863,-20.469 91.536,-19.759 92.695,-18.34C93.854,-16.934 94.434,-14.896 94.434,-12.227L94.434,0Z" style="fill:rgb(250,176,5);fill-rule:nonzero;"/>
                                </g>
                            </g>
                            <g>
                                <g transform="matrix(1,0,0,1,221.146,298.991)">
                                    <path d="M22.871,-22.871L14.883,-22.871L14.883,0L8.555,0L8.555,-22.871L0.605,-22.871L0.605,-28.008L22.871,-28.008L22.871,-22.871Z" style="fill:rgb(34,139,230);"/>
                                </g>
                                <g transform="matrix(1,0,0,1,240.989,298.991)">
                                    <path d="M20.566,-8.242L7.52,-8.242C7.728,-5.339 9.557,-3.887 13.008,-3.887C15.208,-3.887 17.142,-4.408 18.809,-5.449L18.809,-0.996C16.96,-0.007 14.557,0.488 11.602,0.488C8.372,0.488 5.866,-0.404 4.082,-2.188C2.298,-3.984 1.406,-6.484 1.406,-9.688C1.406,-13.008 2.37,-15.638 4.297,-17.578C6.224,-19.518 8.594,-20.488 11.406,-20.488C14.323,-20.488 16.576,-19.622 18.164,-17.891C19.766,-16.159 20.566,-13.809 20.566,-10.84L20.566,-8.242ZM14.844,-12.031C14.844,-14.896 13.685,-16.328 11.367,-16.328C10.378,-16.328 9.518,-15.918 8.789,-15.098C8.073,-14.277 7.637,-13.255 7.48,-12.031L14.844,-12.031Z" style="fill:rgb(34,139,230);"/>
                                </g>
                                <g transform="matrix(1,0,0,1,240.989,298.991)">
                                    <rect x="24.239" y="-29.609" width="6.172" height="29.609" style="fill:rgb(34,139,230);"/>
                                </g>
                                <g transform="matrix(1,0,0,1,240.989,298.991)">
                                    <path d="M53.575,-8.242L40.528,-8.242C40.736,-5.339 42.565,-3.887 46.016,-3.887C48.217,-3.887 50.15,-4.408 51.817,-5.449L51.817,-0.996C49.968,-0.007 47.565,0.488 44.61,0.488C41.381,0.488 38.874,-0.404 37.09,-2.188C35.306,-3.984 34.414,-6.484 34.414,-9.688C34.414,-13.008 35.378,-15.638 37.305,-17.578C39.232,-19.518 41.602,-20.488 44.414,-20.488C47.331,-20.488 49.584,-19.622 51.172,-17.891C52.774,-16.159 53.575,-13.809 53.575,-10.84L53.575,-8.242ZM47.852,-12.031C47.852,-14.896 46.693,-16.328 44.375,-16.328C43.386,-16.328 42.526,-15.918 41.797,-15.098C41.081,-14.277 40.645,-13.255 40.489,-12.031L47.852,-12.031Z" style="fill:rgb(34,139,230);"/>
                                </g>
                                <g transform="matrix(1,0,0,1,240.989,298.991)">
                                    <path d="M89.004,0L82.852,0L82.852,-11.406C82.852,-14.31 81.784,-15.762 79.649,-15.762C78.633,-15.762 77.806,-15.326 77.168,-14.453C76.53,-13.581 76.211,-12.493 76.211,-11.191L76.211,0L70.039,0L70.039,-11.523C70.039,-14.349 68.991,-15.762 66.895,-15.762C65.84,-15.762 64.994,-15.345 64.356,-14.512C63.731,-13.678 63.418,-12.546 63.418,-11.113L63.418,0L57.246,0L57.246,-20L63.418,-20L63.418,-16.875L63.496,-16.875C64.134,-17.943 65.026,-18.809 66.172,-19.473C67.331,-20.15 68.594,-20.488 69.961,-20.488C72.787,-20.488 74.72,-19.245 75.762,-16.758C77.286,-19.245 79.525,-20.488 82.481,-20.488C86.83,-20.488 89.004,-17.806 89.004,-12.441L89.004,0Z" style="fill:rgb(34,139,230);"/>
                                </g>
                                <g transform="matrix(1,0,0,1,240.989,298.991)">
                                    <path d="M111.856,-8.242L98.809,-8.242C99.017,-5.339 100.847,-3.887 104.297,-3.887C106.498,-3.887 108.431,-4.408 110.098,-5.449L110.098,-0.996C108.249,-0.007 105.847,0.488 102.891,0.488C99.662,0.488 97.155,-0.404 95.371,-2.188C93.588,-3.984 92.696,-6.484 92.696,-9.688C92.696,-13.008 93.659,-15.638 95.586,-17.578C97.513,-19.518 99.883,-20.488 102.696,-20.488C105.612,-20.488 107.865,-19.622 109.453,-17.891C111.055,-16.159 111.856,-13.809 111.856,-10.84L111.856,-8.242ZM106.133,-12.031C106.133,-14.896 104.974,-16.328 102.657,-16.328C101.667,-16.328 100.808,-15.918 100.078,-15.098C99.362,-14.277 98.926,-13.255 98.77,-12.031L106.133,-12.031Z" style="fill:rgb(34,139,230);"/>
                                </g>
                                <g transform="matrix(1,0,0,1,240.989,298.991)">
                                    <path d="M127.618,-0.234C126.706,0.247 125.332,0.488 123.496,0.488C119.148,0.488 116.973,-1.771 116.973,-6.289L116.973,-15.449L113.731,-15.449L113.731,-20L116.973,-20L116.973,-24.316L123.125,-26.074L123.125,-20L127.618,-20L127.618,-15.449L123.125,-15.449L123.125,-7.363C123.125,-5.28 123.952,-4.238 125.606,-4.238C126.257,-4.238 126.927,-4.427 127.618,-4.805L127.618,-0.234Z" style="fill:rgb(34,139,230);"/>
                                </g>
                                <g transform="matrix(1,0,0,1,240.989,298.991)">
                                    <path d="M144.141,-14.434C143.399,-14.837 142.533,-15.039 141.543,-15.039C140.202,-15.039 139.154,-14.544 138.399,-13.555C137.644,-12.578 137.266,-11.243 137.266,-9.551L137.266,0L131.094,0L131.094,-20L137.266,-20L137.266,-16.289L137.344,-16.289C138.321,-18.997 140.079,-20.352 142.618,-20.352C143.269,-20.352 143.776,-20.273 144.141,-20.117L144.141,-14.434Z" style="fill:rgb(34,139,230);"/>
                                </g>
                                <g transform="matrix(1,0,0,1,387.005,298.991)">
                                    <path d="M21.641,-20L13.516,1.602C11.563,6.797 8.62,9.395 4.688,9.395C3.19,9.395 1.96,9.225 0.996,8.887L0.996,3.965C1.816,4.447 2.708,4.688 3.672,4.688C5.26,4.688 6.367,3.939 6.992,2.441L8.047,-0.039L-0.078,-20L6.758,-20L10.488,-7.832C10.723,-7.077 10.905,-6.185 11.035,-5.156L11.113,-5.156C11.23,-5.911 11.445,-6.79 11.758,-7.793L15.527,-20L21.641,-20Z" style="fill:rgb(34,139,230);"/>
                                </g>
                                <g transform="matrix(1,0,0,1,387.005,298.991)">
                                    <path d="M48.769,-15.078L45.839,-15.078L45.839,-23.77L45.761,-23.77L42.636,-15.078L40,-15.078L37.168,-23.77L37.05,-23.77L37.05,-15.078L34.16,-15.078L34.16,-28.008L38.398,-28.008L41.445,-19.16L41.523,-19.16L44.804,-28.008L48.769,-28.008L48.769,-15.078ZM32.89,-25.605L29.394,-25.605L29.394,-15.078L26.367,-15.078L26.367,-25.605L23.007,-25.605L23.007,-28.008L32.89,-28.008L32.89,-25.605Z" style="fill:rgb(34,139,230);"/>
                                </g>
                            </g>
                        </g>
                    </g>
                </g>
            </g>
        </g>
    </g>
</svg>
